M48
; DRILL file {KiCad (5.1.9)-1} date 02/11/23 17:39:14
; FORMAT={3:3/ absolute / metric / suppress leading zeros}
; #@! TF.CreationDate,2023-02-11T17:39:14+01:00
; #@! TF.GenerationSoftware,Kicad,Pcbnew,(5.1.9)-1
; #@! TF.FileFunction,Plated,1,2,PTH
FMAT,2
METRIC,TZ
T1C0.900
T2C1.000
T3C1.100
T4C1.300
%
G90
G05
T1
X132960Y-73000
X135500Y-73000
T2
X140140Y-79720
X140140Y-82260
X140140Y-84800
X140140Y-87340
X140140Y-89880
X140140Y-92420
X140140Y-94960
X140140Y-97500
X163000Y-79720
X163000Y-82260
X163000Y-84800
X163000Y-87340
X163000Y-89880
X163000Y-92420
X163000Y-94960
X163000Y-97500
T3
X173500Y-83500
X173500Y-90000
X173500Y-95500
X173500Y-102000
X178000Y-83500
X178000Y-90000
X178000Y-95500
X178000Y-102000
T4
X126500Y-115000
X127500Y-77000
X127500Y-99500
X131500Y-115000
X136500Y-115000
X141500Y-115000
X146500Y-115000
X151500Y-115000
X156500Y-115000
X161500Y-115000
X166500Y-115000
X171500Y-115000
X176500Y-115000
T0
M30
